HIERARCHY
ROOT RootJoint
{
    OFFSET   0.000000   0.000000   0.000000
    CHANNELS 6 Xposition Yposition Zposition Xrotation Yrotation Zrotation
    JOINT pelvis_lowerback
    {
        OFFSET   0.000000   0.093605   0.000000
        CHANNELS 3 Xrotation Yrotation Zrotation
        JOINT lowerback_torso
        {
            OFFSET   0.000000   0.100000   0.000000
            CHANNELS 3 Xrotation Yrotation Zrotation
            JOINT torso_head
            {
                OFFSET   0.000000   0.282350   0.000000
                CHANNELS 3 Xrotation Yrotation Zrotation
                End Site
                {
                    OFFSET   0.000000   0.192650   0.000000
                }
            }
            JOINT rTorso_Clavicle
            {
                OFFSET  -0.001000   0.157500   0.000000
                CHANNELS 3 Xrotation Yrotation Zrotation
                JOINT rShoulder
                {
                    OFFSET  -0.117647   0.000000   0.000000
                    CHANNELS 3 Xrotation Yrotation Zrotation
                    JOINT rElbow
                    {
                        OFFSET  -0.245000   0.000000   0.000000
                        CHANNELS 3 Xrotation Yrotation Zrotation
                        JOINT rWrist
                        {
                            OFFSET  -0.240000   0.000000   0.000000
                            CHANNELS 3 Xrotation Yrotation Zrotation
                            End Site
                            {
                                OFFSET  -0.116353  -0.002500   0.000000
                            }
                        }
                    }
                }
            }
            JOINT lTorso_Clavicle
            {
                OFFSET   0.001000   0.157500   0.000000
                CHANNELS 3 Xrotation Yrotation Zrotation
                JOINT lShoulder
                {
                    OFFSET   0.117647   0.000000   0.000000
                    CHANNELS 3 Xrotation Yrotation Zrotation
                    JOINT lElbow
                    {
                        OFFSET   0.245000   0.000000   0.000000
                        CHANNELS 3 Xrotation Yrotation Zrotation
                        JOINT lWrist
                        {
                            OFFSET   0.240000   0.000000   0.000000
                            CHANNELS 3 Xrotation Yrotation Zrotation
                            End Site
                            {
                                OFFSET   0.116353  -0.002500   0.000000
                            }
                        }
                    }
                }
            }
        }
    }
    JOINT rHip
    {
        OFFSET  -0.100000  -0.051395   0.000000
        CHANNELS 3 Xrotation Yrotation Zrotation
        JOINT rKnee
        {
            OFFSET   0.000000  -0.410000   0.000000
            CHANNELS 3 Xrotation Yrotation Zrotation
            JOINT rAnkle
            {
                OFFSET   0.000000  -0.390000   0.000000
                CHANNELS 3 Xrotation Yrotation Zrotation
                JOINT rToeJoint
                {
                    OFFSET   0.000000  -0.050000   0.130000
                    CHANNELS 3 Xrotation Yrotation Zrotation
                    End Site
                    {
                        OFFSET  -0.010000   0.002000   0.060000
                    }
                }
            }
        }
    }
    JOINT lHip
    {
        OFFSET   0.100000  -0.051395   0.000000
        CHANNELS 3 Xrotation Yrotation Zrotation
        JOINT lKnee
        {
            OFFSET   0.000000  -0.410000   0.000000
            CHANNELS 3 Xrotation Yrotation Zrotation
            JOINT lAnkle
            {
                OFFSET   0.000000  -0.390000   0.000000
                CHANNELS 3 Xrotation Yrotation Zrotation
                JOINT lToeJoint
                {
                    OFFSET   0.000000  -0.050000   0.130000
                    CHANNELS 3 Xrotation Yrotation Zrotation
                    End Site
                    {
                        OFFSET   0.010000   0.002000   0.060000
                    }
                }
            }
        }
    }
}
MOTION
Frames: 10
Frame Time:   0.008333
 -2.413315   0.442044   3.344602 135.396677  74.337625 -134.622930  36.715837   1.860479   3.959102  26.067716   1.380313   2.417013  -6.558670   1.381924  -2.605464  -1.787748  25.315215   0.949737 -16.205082  22.652657   3.164531   0.000499  17.274821  -0.000451   0.427340   2.964239 -14.066574  -4.261713 -10.119711  -3.378382  -9.326491  -6.639269 -15.822567  -0.029867 -50.966344  -0.018967  -2.276333  -5.984633  15.352709 -88.492275   5.631772 -13.180877 134.068021   0.005606  -0.003352 -46.063270   1.819246   7.425073 -14.420263   0.000112   0.003228 -100.940228   2.175800  -1.968803 123.964518   0.019402   0.016292 -33.762877 -12.297433  -2.045592  -0.418916   0.000299  -0.000918
 -2.412265   0.434077   3.345072 138.248329  74.541239 -137.578200  37.366474   1.840281   4.162734  25.941533   1.219959   2.641225  -6.690520   1.535115  -2.700513  -1.879669  25.296359   1.264323 -16.213885  22.038668   3.598105   0.001418  17.565452   0.000426   0.317954   2.674345 -14.094579  -4.488392 -10.570285  -3.181927  -9.735283  -7.198321 -15.242042  -0.027462 -51.270618  -0.016977  -2.117067  -5.966239  15.485184 -88.277945   5.474954 -13.529789 135.343592   0.003804  -0.002496 -46.788043   1.464855   7.363047 -14.453237   0.000060   0.002688 -101.327192   2.135767  -1.982028 125.180634   0.018503   0.015479 -33.856873 -12.158010  -1.884276  -0.415892   0.000237  -0.000722
 -2.411218   0.427339   3.345418 140.808290  74.687662 -140.235295  37.931909   1.837569   4.331603  25.809045   1.074751   2.848305  -6.815150   1.683185  -2.793301  -1.951066  25.316884   1.578712 -16.214886  21.494516   4.032170   0.002205  17.853346   0.001084   0.230675   2.469750 -14.035827  -4.713101 -11.045219  -2.979846 -10.124162  -7.767601 -14.694595  -0.025388 -51.569840  -0.015330  -1.947281  -5.998621  15.589054 -88.042398   5.287183 -13.885584 136.419696   0.002031  -0.001907 -47.437251   1.140031   7.306805 -14.469998   0.000036   0.002206 -101.632417   2.092128  -2.007482 126.214605   0.017008   0.014084 -33.938225 -12.023463  -1.731141  -0.417438   0.000191  -0.000583
 -2.410159   0.421638   3.345633 143.057140  74.789628 -142.577498  38.411909   1.843728   4.475207  25.660732   0.944836   3.036572  -6.934517   1.822061  -2.883416  -2.009134  25.363827   1.885516 -16.210346  21.007623   4.456041   0.002768  18.131169   0.001590   0.160560   2.326194 -13.929492  -4.925682 -11.513745  -2.780681 -10.487247  -8.323624 -14.183567  -0.023548 -51.858391  -0.013960  -1.770251  -6.082370  15.680008 -87.800053   5.088356 -14.229099 137.329721   0.000601  -0.001506 -48.015422   0.846020   7.257972 -14.486761   0.000020   0.001821 -101.874112   2.047561  -2.040069 127.100173   0.015247   0.012432 -34.019870 -11.898521  -1.587334  -0.421532   0.000156  -0.000480
 -2.409082   0.416825   3.345718 145.012968  74.857976 -144.623636  38.811189   1.856465   4.601172  25.493548   0.830088   3.207968  -7.049276   1.951896  -2.969640  -2.059546  25.423988   2.179188 -16.202069  20.566636   4.861896   0.003089  18.396462   0.001992   0.102328   2.223571 -13.798293  -5.122371 -11.961554  -2.588297 -10.823226  -8.855247 -13.707776  -0.021893 -52.132944  -0.012813  -1.591220  -6.196391  15.762428 -87.554269   4.887030 -14.554910 138.099338  -0.000447  -0.001237 -48.530964   0.578126   7.214853 -14.509702   0.000005   0.001532 -102.060330   2.004369  -2.080456 127.862113   0.013418   0.010721 -34.109857 -11.786422  -1.452763  -0.427003   0.000129  -0.000399
 -2.407983   0.412780   3.345685 146.700225  74.900910 -146.398325  39.134769   1.874717   4.714271  25.306555   0.729988   3.364321  -7.159574   2.073259  -3.051223  -2.105822  25.488422   2.456309 -16.191350  20.163229   5.245054   0.003185  18.647920   0.002313   0.052263   2.147935 -13.657417  -5.302179 -12.380922  -2.403844 -11.132666  -9.356649 -13.264661  -0.020393 -52.391822  -0.011847  -1.414190  -6.324267  15.839417 -87.306753   4.687994 -14.861300 138.749070  -0.001152  -0.001057 -48.991367   0.332709   7.176228 -14.542057  -0.000010   0.001327 -102.197078   1.963935  -2.129354 128.519437   0.011636   0.009070 -34.212819 -11.688702  -1.327062  -0.433150   0.000107  -0.000334
 -2.406861   0.409403   3.345545 148.144625  74.924551 -147.927259  39.387776   1.897794   4.817404  25.099707   0.643815   3.507001  -7.265514   2.186722  -3.127860  -2.150041  25.551566   2.714992 -16.179118  19.791450   5.603137   0.003097  18.885055   0.002569   0.007892   2.089994 -13.516814  -5.465520 -12.767942  -2.227254 -11.417014  -9.825093 -12.851273  -0.019030 -52.634402  -0.011027  -1.241712  -6.455324  15.913868 -87.058764   4.493956 -15.148025 139.295694  -0.001581  -0.000935 -49.402919   0.107037   7.141319 -14.585550  -0.000028   0.001193 -102.289537   1.926892  -2.186973 129.087121   0.009970   0.007548 -34.330985 -11.605843  -1.209722  -0.439576   0.000089  -0.000279
 -2.405824   0.408084   3.345315 149.784783  75.115650 -149.681208  39.887281   1.992294   4.854174  24.842096   0.593161   3.652658  -7.344461   2.240594  -3.165521  -2.325345  25.585248   2.916183 -16.176866  19.440775   5.968234   0.003415  19.644868   0.004775  -0.062382   1.714902 -13.122721  -5.660983 -13.245163  -2.029764 -11.546210 -10.305427 -12.416228  -0.016451 -52.771059  -0.009310  -1.053566  -6.454362  15.989891 -86.512712   4.182152 -15.304606 139.525302  -0.001574  -0.000706 -49.652250  -0.115760   7.029106 -14.685326  -0.000098   0.001238 -101.937214   1.797315  -2.225237 129.418347   0.008151   0.006057 -34.536361 -11.651651  -1.141068  -0.442241   0.000072  -0.000223
 -2.404857   0.408220   3.344992 151.041611  75.284997 -151.059725  40.262575   2.077838   4.857737  24.573540   0.547593   3.777505  -7.407720   2.288338  -3.194039  -2.499058  25.645385   3.089024 -16.177395  19.158413   6.302737   0.002988  20.386847   0.006584  -0.088724   1.534060 -12.726978  -5.834402 -13.716999  -1.842511 -11.658367 -10.772705 -12.015299  -0.014283 -52.899815  -0.007928  -0.872885  -6.435654  15.988987 -85.954356   3.841608 -15.427796 139.528989  -0.001264  -0.000564 -49.798769  -0.311786   6.940640 -14.785245  -0.000125   0.001262 -101.471311   1.650094  -2.271035 129.548906   0.006546   0.004821 -34.755566 -11.651196  -1.073566  -0.448401   0.000060  -0.000179
 -2.403921   0.409471   3.344609 151.948692  75.416985 -152.091676  40.508560   2.152610   4.839405  24.263826   0.504880   3.880862  -7.468220   2.332243  -3.219138  -2.664244  25.713589   3.244035 -16.177507  18.912883   6.613764   0.001932  21.089638   0.008065  -0.095231   1.440217 -12.345227  -5.988057 -14.165127  -1.667794 -11.756562 -11.218299 -11.646785  -0.012569 -53.025078  -0.006916  -0.693344  -6.440841  15.946708 -85.403283   3.486423 -15.535501 139.361502  -0.000778  -0.000484 -49.874460  -0.482230   6.872568 -14.882735  -0.000124   0.001256 -100.940750   1.500988  -2.318864 129.521498   0.005232   0.003868 -34.981242 -11.631965  -1.010571  -0.455141   0.000051  -0.000143
